<svg width="24" height="24" viewBox="0 0 24 24" fill="none" xmlns="http://www.w3.org/2000/svg">
<g clip-path="url(#clip0_602_78)">
<path d="M11.907 3.02393C11.9364 3.00781 11.9695 2.99954 12.003 2.99993C12.0361 2.9998 12.0686 3.00805 12.0975 3.02393C12.1318 3.0445 12.1599 3.07407 12.1785 3.10943L22.464 20.6099C22.518 20.6999 22.5165 20.7959 22.467 20.8844C22.448 20.9207 22.4202 20.9517 22.386 20.9744C22.3563 20.9926 22.3218 21.0015 22.287 20.9999H1.71904C1.68422 21.0016 1.64971 20.9927 1.62004 20.9744C1.58592 20.9517 1.55807 20.9207 1.53904 20.8844C1.51432 20.8428 1.50153 20.7952 1.50206 20.7468C1.50259 20.6983 1.51642 20.651 1.54204 20.6099L11.826 3.10943C11.8448 3.07411 11.8728 3.04456 11.907 3.02393ZM13.473 2.34893C13.3246 2.09027 13.1105 1.87538 12.8524 1.72594C12.5942 1.5765 12.3013 1.4978 12.003 1.4978C11.7048 1.4978 11.4118 1.5765 11.1537 1.72594C10.8956 1.87538 10.6815 2.09027 10.533 2.34893L0.247541 19.8494C-0.437959 21.0164 0.384041 22.4999 1.71754 22.4999H22.287C23.6205 22.4999 24.444 21.0149 23.757 19.8494L13.473 2.34893Z" fill="white"/>
<path d="M10.5031 17.9999C10.5031 17.8029 10.5419 17.6079 10.6172 17.4259C10.6926 17.2439 10.8031 17.0786 10.9424 16.9393C11.0817 16.8 11.247 16.6895 11.429 16.6141C11.611 16.5387 11.8061 16.4999 12.0031 16.4999C12.2 16.4999 12.3951 16.5387 12.5771 16.6141C12.7591 16.6895 12.9244 16.8 13.0637 16.9393C13.203 17.0786 13.3135 17.2439 13.3889 17.4259C13.4643 17.6079 13.5031 17.8029 13.5031 17.9999C13.5031 18.3978 13.345 18.7793 13.0637 19.0606C12.7824 19.3419 12.4009 19.4999 12.0031 19.4999C11.6052 19.4999 11.2237 19.3419 10.9424 19.0606C10.6611 18.7793 10.5031 18.3978 10.5031 17.9999ZM10.6501 8.99243C10.6301 8.80319 10.6501 8.61187 10.7089 8.43087C10.7676 8.24988 10.8637 8.08325 10.991 7.94181C11.1183 7.80037 11.2739 7.68727 11.4478 7.60986C11.6216 7.53244 11.8098 7.49243 12.0001 7.49243C12.1903 7.49243 12.3785 7.53244 12.5523 7.60986C12.7262 7.68727 12.8818 7.80037 13.0091 7.94181C13.1364 8.08325 13.2325 8.24988 13.2913 8.43087C13.35 8.61187 13.37 8.80319 13.3501 8.99243L12.8251 14.2529C12.8074 14.4596 12.7129 14.6521 12.5601 14.7924C12.4073 14.9327 12.2075 15.0105 12.0001 15.0105C11.7926 15.0105 11.5928 14.9327 11.44 14.7924C11.2872 14.6521 11.1927 14.4596 11.1751 14.2529L10.6501 8.99243Z" fill="white"/>
</g>
<defs>
<clipPath id="clip0_602_78">
<rect width="24" height="24" fill="white"/>
</clipPath>
</defs>
</svg>
